# xmcd
#
# Track frame offsets:
#	150
#	15844
#	31937
#	47329
#	58710
#	77253
#	92147
#	108740
#	126111
#	140529
#	158419
#	174716
#	190262
#
# Disc length: 2731 seconds
#
# Revision: 1
# Processed by: cddbd v1.5.2PL0 Copyright (c) Steve Scherf et al.
# Submitted via: audiograbber 1.83.01
#
DISCID=980aa90d
DTITLE=Various Artist - XMAS 1039
DYEAR=2018
DGENRE=Country
TTITLE0=Sherry Lynn - Christmas On My Mind
TTITLE1=Jayne Carter - Hallelujah Emmanuel
TTITLE2=Lucas Hoge - Hey Christmas
TTITLE3=Jes Marie - Jingle Bell Rock
TTITLE4=Phil Vassar and Lonestar - Not So Silent Night
TTITLE5=TJ Sparks - What Would Christmas Be
TTITLE6=Jeff Bates - When Christmas Gets A Hold Of Me
TTITLE7=Vince Vance and The Valiants - All I Want For Christmas Is You
TTITLE8=Mike Aiken - Almost Christmas
TTITLE9=Vince Vance and The Valiants - Christmas State Of Mind
TTITLE10=Carly Burruss - The Sweetest Time Of All
TTITLE11=Greg Sterling - That Better Be Santa Claus
TTITLE12=Bubba T ft. Natalie Rose - Frosty The Snowman
EXTD=
EXTT0=
EXTT1=
EXTT2=
EXTT3=
EXTT4=
EXTT5=
EXTT6=
EXTT7=
EXTT8=
EXTT9=
EXTT10=
EXTT11=
EXTT12=
PLAYORDER=
